<svg width="57" height="51" viewBox="0 0 57 51" fill="none" xmlns="http://www.w3.org/2000/svg">
<path d="M0.244558 45.7848C0.00719417 45.6437 -0.0708307 45.3369 0.070284 45.0995C0.211399 44.8621 0.518215 44.7841 0.755579 44.9252L0.500068 45.355L0.244558 45.7848ZM52.19 0.227996C52.3402 -0.00368299 52.6499 -0.0696828 52.8816 0.0805812L56.657 2.52928C56.8887 2.67954 56.9547 2.98917 56.8044 3.22085C56.6541 3.45253 56.3445 3.51853 56.1128 3.36826L52.7569 1.19164L50.5803 4.54758C50.43 4.77926 50.1204 4.84526 49.8887 4.695C49.657 4.54473 49.591 4.23511 49.7413 4.00343L52.19 0.227996ZM0.500068 45.355L0.755579 44.9252C23.9072 58.6891 60.2706 38.8389 52.1205 0.604312L52.6095 0.500074L53.0985 0.395835C61.4239 39.4527 24.173 60.0104 0.244558 45.7848L0.500068 45.355Z" fill="#F93113"/>
</svg>
