<svg width="12" height="16" viewBox="0 0 12 16" fill="none" xmlns="http://www.w3.org/2000/svg">
<path d="M6.62295 15.3277C8.19809 13.3564 11.7905 8.57882 11.7905 5.89526C11.7905 2.64058 9.14993 0 5.89526 0C2.64059 0 0 2.64058 0 5.89526C0 8.57882 3.59242 13.3564 5.16756 15.3277C5.54523 15.7974 6.24529 15.7974 6.62295 15.3277ZM5.89526 3.93017C7.40798 3.93017 8.35343 5.56774 7.59707 6.8778C7.24603 7.48583 6.59735 7.86038 5.89526 7.86034C4.38253 7.86041 3.4371 6.22288 4.1934 4.91279C4.54442 4.30475 5.19317 3.93017 5.89526 3.93017Z" fill="#5A9506"/>
</svg>
