<svg width="12" height="10" viewBox="0 0 12 10" fill="none" xmlns="http://www.w3.org/2000/svg">
<path d="M1.0556 8.33193C0.368803 7.60283 2.11134e-06 6.78454 2.2273e-06 5.45807C2.43125e-06 3.12514 1.63767 1.03367 4.0204 6.94164e-06L4.61554 0.918407C2.392 2.12147 1.95747 3.68194 1.78374 4.66587C2.14174 4.48074 2.6104 4.41567 3.0698 4.45821C4.27274 4.56974 5.2208 5.55727 5.2208 6.78454C5.2208 8.07321 4.17614 9.11787 2.88747 9.11787C2.17207 9.11787 1.488 8.79091 1.0556 8.33193ZM7.72228 8.33193C7.03547 7.60283 6.66667 6.78454 6.66667 5.45807C6.66667 3.12514 8.30434 1.03367 10.6871 7.52445e-06L11.2822 0.918407C9.0587 2.12147 8.62412 3.68194 8.45042 4.66587C8.80842 4.48074 9.27706 4.41567 9.73648 4.45821C10.9394 4.56974 11.8874 5.55727 11.8874 6.78454C11.8874 8.07321 10.8428 9.11787 9.5541 9.11787C8.83874 9.11787 8.15464 8.79091 7.72228 8.33193Z" fill="#5A9506"/>
</svg>
